<?xml version="1.0" encoding="UTF-8"?>
<svg version="1.1" xmlns="http://www.w3.org/2000/svg" width="512" height="512">
<path d="M0 0 C0.21914062 1.12535156 0.43828125 2.25070313 0.6640625 3.41015625 C3.92546963 19.48813574 8.95429875 32.89850256 19 46 C19.73669922 47.01320313 19.73669922 47.01320313 20.48828125 48.046875 C31.70884956 62.4780484 52.34026725 72.00793575 70.21024036 74.28116322 C76.03083325 74.88971068 81.76781445 75.14846249 87.61791992 75.14526367 C88.521875 75.14862228 89.42583008 75.1519809 90.35717773 75.15544128 C93.31495579 75.16485921 96.27267667 75.16688985 99.23046875 75.16796875 C101.31016563 75.17118803 103.38986229 75.1745526 105.46955872 75.17805481 C109.81931075 75.18402347 114.16904299 75.18589708 118.51879883 75.18530273 C124.05484074 75.18520132 129.5907538 75.19884213 135.12676525 75.21607494 C139.42082791 75.22726968 143.71486018 75.22921965 148.00893593 75.22869301 C150.04799149 75.22986233 152.08704812 75.23422419 154.1260891 75.24202538 C181.92741121 75.33842597 206.78540994 71.27673807 227.28125 50.9453125 C240.59061242 36.96860211 247.55672964 18.91720221 250 0 C268.86272686 5.11531576 285.23737565 19.28943516 295.14160156 35.91650391 C303.1204047 50.05566905 307.15052936 64.47663458 307.14717102 80.76278687 C307.15084771 81.72865868 307.1545244 82.6945305 307.1583125 83.68967116 C307.16930118 86.91730577 307.17318502 90.14490812 307.17700195 93.37255859 C307.18327036 95.6908071 307.18991749 98.00905461 307.19691467 100.32730103 C307.21791684 107.93433945 307.22831515 115.54137799 307.23828125 123.1484375 C307.24233058 125.77279292 307.24644756 128.39714824 307.25063133 131.02150345 C307.26749587 141.94371687 307.28212909 152.86592825 307.28938007 163.78815269 C307.29128965 166.61837134 307.29321003 169.44858998 307.29516602 172.27880859 C307.29564976 172.98215712 307.2961335 173.68550565 307.2966319 174.41016777 C307.30491963 185.78584176 307.33023759 197.16141017 307.36274669 208.53703813 C307.39592465 220.24314237 307.41383853 231.94919315 307.41702431 243.65534461 C307.41936769 250.21693906 307.42823509 256.77836655 307.45348549 263.33991623 C307.47688613 269.52058484 307.48095134 275.70097798 307.47072411 281.88167953 C307.47023151 284.1385846 307.47646954 286.39550378 307.49028015 288.65236664 C307.58174004 304.49675562 307.00959751 320.29325374 299.125 334.5 C298.77695312 335.15814697 298.42890625 335.81629395 298.0703125 336.49438477 C287.12569505 356.87219616 270.22407794 372.34775486 247.9296875 379.34765625 C238.74614507 381.98593534 229.80994919 383.15114306 220.2938385 383.14044189 C219.45370238 383.14341302 218.61356626 383.14638414 217.74797148 383.1494453 C214.95184372 383.15806968 212.1557591 383.15963522 209.35961914 383.16113281 C207.34663808 383.16576554 205.33365789 383.17079081 203.32067871 383.17617798 C197.86357379 383.1892629 192.40648115 383.19573967 186.94936299 383.20018864 C183.53332751 383.20312657 180.11729533 383.20723279 176.70126152 383.21169281 C165.99423586 383.22535942 155.28721782 383.23502934 144.58018404 383.2388947 C132.25660549 383.24336908 119.9331382 383.26089173 107.60959345 383.2898953 C98.06104785 383.31158078 88.51253339 383.32160269 78.96396345 383.32293582 C73.27208033 383.32397923 67.58030191 383.32978722 61.8884449 383.34775543 C56.52610225 383.36435452 51.16394168 383.36633473 45.80158234 383.35761642 C43.84622901 383.35685226 41.8908654 383.3611056 39.93553734 383.37107468 C14.06646334 383.49510549 -9.01801627 378.57764748 -29 361 C-29.76183594 360.33355469 -30.52367188 359.66710937 -31.30859375 358.98046875 C-37.90582558 352.81771666 -42.45656788 345.72294895 -47 338 C-47.50660156 337.1440625 -48.01320313 336.288125 -48.53515625 335.40625 C-54.86248329 323.79647561 -57.14984536 310.39046093 -57.14717102 297.31277466 C-57.15084771 296.34296815 -57.1545244 295.37316164 -57.1583125 294.37396705 C-57.16931774 291.12707289 -57.17318786 287.88021077 -57.17700195 284.63330078 C-57.18326913 282.30372517 -57.18991615 279.97415055 -57.19691467 277.64457703 C-57.21793215 269.99482923 -57.22831682 262.3450813 -57.23828125 254.6953125 C-57.24233006 252.05762598 -57.24644702 249.41993957 -57.25063133 246.78225327 C-57.2674984 235.80517685 -57.28213148 224.82810248 -57.28938007 213.85101509 C-57.2912897 211.00549442 -57.29321007 208.15997376 -57.29516602 205.31445312 C-57.29564976 204.60728617 -57.2961335 203.90011922 -57.2966319 203.17152296 C-57.30491988 191.73367811 -57.33023724 180.29593825 -57.36274669 168.85813917 C-57.39591375 157.09218077 -57.4138376 145.32627555 -57.41702431 133.56027019 C-57.41918075 126.96349271 -57.42825162 120.3668507 -57.45348549 113.7701149 C-57.47686916 107.55663202 -57.48095805 101.34342319 -57.47072411 95.12990761 C-57.47023109 92.85968295 -57.47648163 90.58944433 -57.49028015 88.31926155 C-57.64577284 61.20147504 -51.14511461 38.67483203 -31.8359375 18.75 C-24.88098214 12.00580086 -10.4305203 0 0 0 Z " fill="#523CBD" transform="translate(131,87)"/>
<path d="M0 0 C5.78167664 3.28087206 10.43627811 7.98668589 12.75 14.3125 C14.15088746 22.01738104 11.87776664 27.86795421 7.75 34.3125 C4.33373724 38.40546075 0.58975161 42.12788273 -3.203125 45.86499023 C-4.31994736 46.98367988 -5.4356811 48.10345721 -6.55041504 49.22422791 C-9.55973857 52.24346801 -12.58428954 55.24700527 -15.61222839 58.24756122 C-18.786686 61.39807454 -21.94763848 64.5620854 -25.11035156 67.72438049 C-30.4180367 73.02744857 -35.73510985 78.32094828 -41.05859375 83.6081543 C-47.2089934 89.71675156 -53.34716961 95.83741029 -59.47835159 101.96529239 C-66.01791462 108.50125435 -72.5650821 115.02955385 -79.11515808 121.55497861 C-80.99832405 123.43192334 -82.8801976 125.31015607 -84.76184082 127.18862724 C-87.71849552 130.13937436 -90.68030521 133.08485131 -93.64616394 136.02634621 C-94.73264449 137.10539857 -95.81745968 138.18613077 -96.90046692 139.26866913 C-98.38057395 140.74751447 -99.8666875 142.22005172 -101.35449219 143.69114685 C-102.18406433 144.51606849 -103.01363647 145.34099012 -103.86834717 146.19090939 C-109.13390788 150.88150242 -113.63306778 152.43877763 -120.5625 152.625 C-121.46613281 152.66238281 -122.36976563 152.69976562 -123.30078125 152.73828125 C-130.57426099 151.68820272 -135.55237491 146.44941067 -140.51464844 141.4519043 C-141.20335526 140.77006073 -141.89206207 140.08821716 -142.60163879 139.38571167 C-144.86191836 137.14364098 -147.11103356 134.89075626 -149.359375 132.63671875 C-150.93365612 131.06700153 -152.50830788 129.49765595 -154.08331299 127.92866516 C-157.37651233 124.64438482 -160.66399228 121.35450659 -163.94775391 118.06079102 C-168.15135831 113.84568606 -172.37062677 109.64666392 -176.59453964 105.45192242 C-179.84783297 102.2169924 -183.09174749 98.97278396 -186.33301544 95.7258091 C-187.88484019 94.17383122 -189.43976352 92.62494508 -190.99785614 91.07925987 C-193.17595484 88.91607441 -195.34086755 86.74047746 -197.50292969 84.5612793 C-198.14504898 83.92882797 -198.78716827 83.29637665 -199.44874573 82.64476013 C-204.35501739 77.65690595 -207.67539845 72.64802954 -207.6875 65.375 C-207.46911443 59.37849619 -205.71516425 54.94122965 -201.6015625 50.5546875 C-196.83240724 46.24370436 -192.47420413 44.03209774 -185.9375 43.9375 C-184.61298828 43.89496094 -184.61298828 43.89496094 -183.26171875 43.8515625 C-173.97639434 45.27266273 -168.29034176 51.78777857 -162.08142853 58.21097755 C-160.42622219 59.9223469 -158.75801264 61.62004329 -157.08587646 63.31486511 C-152.94231891 67.51956827 -148.81934561 71.74423196 -144.70001221 75.97265625 C-141.20435054 79.56027467 -137.69914479 83.13796387 -134.17928314 86.70184898 C-132.5339608 88.37587557 -130.90391554 90.06387658 -129.27374268 91.75263977 C-128.26953143 92.77180948 -127.26458677 93.79025723 -126.25878906 94.80786133 C-124.94929291 96.1521093 -124.94929291 96.1521093 -123.61334229 97.52351379 C-121.4904084 99.54281056 -121.4904084 99.54281056 -119.35956669 99.16072178 C-116.65275676 98.0723584 -115.18575011 96.60535093 -113.1335907 94.52993774 C-112.32203522 93.71672562 -111.51047974 92.90351349 -110.67433167 92.06565857 C-109.79268845 91.16694534 -108.91104523 90.26823212 -108.00268555 89.34228516 C-107.05847674 88.39068067 -106.11357375 87.43976453 -105.16802979 86.48948669 C-103.13341627 84.44200134 -101.10350991 82.38999877 -99.07703209 80.33446121 C-95.8699717 77.08204863 -92.65095277 73.84165244 -89.42988586 70.6031189 C-81.42932139 62.55548371 -73.44390736 54.49285899 -65.4630127 46.42572021 C-59.26367601 40.15963675 -53.05990241 33.8980938 -46.84213477 27.6502918 C-43.6423946 24.43407958 -40.45225904 21.20872705 -37.2691139 17.97609353 C-35.28227809 15.96252195 -33.2870789 13.95739875 -31.28952026 11.95446968 C-29.93025468 10.58654564 -28.58106907 9.20862825 -27.23225403 7.83039856 C-19.4105423 0.0197818 -10.97242203 -5.08326896 0 0 Z " fill="#C985FE" transform="translate(353.25,220.6875)"/>
<path d="M0 0 C0.95520538 -0.0065712 1.91041077 -0.0131424 2.89456177 -0.01991272 C6.05145353 -0.03959839 9.20829772 -0.05130025 12.36523438 -0.0612793 C13.44767929 -0.06535482 14.53012421 -0.06943035 15.64537048 -0.07362938 C21.37913826 -0.09447389 27.11288225 -0.10878042 32.84667969 -0.11816406 C38.74302262 -0.12920135 44.63898537 -0.16357525 50.5351944 -0.20333576 C55.090827 -0.22959831 59.64637051 -0.23786464 64.20207214 -0.24144554 C66.37398332 -0.24628967 68.5458911 -0.25784087 70.71772766 -0.27648354 C85.82273263 -0.39804289 100.44248071 -0.38295581 112.45898438 10.17700195 C120.95251098 18.67052856 124.5681534 27.72001673 124.95898438 39.67700195 C124.5691303 51.60410007 120.97171421 60.72453923 112.45898438 69.17700195 C102.97362327 77.00697718 92.95021296 79.31792217 80.91796875 79.35400391 C79.96276337 79.3605751 79.00755798 79.3671463 78.02340698 79.37391663 C74.86651522 79.3936023 71.70967103 79.40530416 68.55273438 79.4152832 C66.929067 79.42139649 66.929067 79.42139649 65.27259827 79.42763329 C59.53883049 79.4484778 53.8050865 79.46278433 48.07128906 79.47216797 C42.17494613 79.48320526 36.27898338 79.51757916 30.38277435 79.55733967 C25.82714175 79.58360222 21.27159824 79.59186854 16.71589661 79.59544945 C14.54398543 79.60029357 12.37207765 79.61184478 10.20024109 79.63048744 C-6.49678849 79.76485881 -20.05212865 79.24092482 -32.66210938 67.1418457 C-40.81558066 58.65924347 -43.95985446 48.93223283 -43.81835938 37.2824707 C-42.6504962 24.2056929 -36.6806158 15.28056022 -26.97851562 6.9387207 C-18.7642842 1.00183229 -9.81644525 0.0294371 0 0 Z " fill="#CA86FF" transform="translate(215.541015625,41.822998046875)"/>
</svg>
